<?xml version="1.0" encoding="utf-8"?>
<!-- Generator: Adobe Illustrator 16.0.0, SVG Export Plug-In . SVG Version: 6.00 Build 0)  -->
<!DOCTYPE svg PUBLIC "-//W3C//DTD SVG 1.1 Tiny//EN" "http://www.w3.org/Graphics/SVG/1.1/DTD/svg11-tiny.dtd">
<svg version="1.1" baseProfile="tiny" id="Layer_1" xmlns="http://www.w3.org/2000/svg" xmlns:xlink="http://www.w3.org/1999/xlink"
	 x="0px" y="0px" width="200px" height="17.61px" viewBox="-72.479 -81.138 200 17.61" xml:space="preserve">
<g id="ART">
	<g>
		<path fill="#180F0A" d="M-62.916-65.999c-3.761,0-7.167-2.236-7.167-6.292c0-3.783,2.979-6.314,6.653-6.314
			c2.398,0,4.326,1.028,6.114,2.531l1.816-1.547c-2.197-2.129-4.968-3.426-8.06-3.426c-4.997,0-8.919,3.653-8.919,8.714
			c0,5.352,4.259,8.805,9.409,8.805c3.069,0,5.827-1.033,7.844-3.408l-1.617-1.748C-58.654-66.868-60.292-65.999-62.916-65.999z"/>
		<path fill="#180F0A" d="M-41.838-80.622l-7.594,16.686h2.647l2.486-5.445h7.498l2.397,5.445h2.732l-7.48-16.688h-2.687V-80.622z
			 M-43.183-71.839l2.643-5.824l2.642,5.824H-43.183z"/>
		<path fill="#180F0A" d="M-9.116-75.716c0-3.184-2.218-4.93-5.264-4.93h-9.899v16.711h2.441v-6.918h6.228l3.358,6.916h2.754
			l-3.472-7.012C-10.555-71.53-9.116-73.187-9.116-75.716z M-14.38-73.299h-7.461v-4.926h7.461c1.588,0,2.842,0.628,2.842,2.371
			C-11.538-74.083-12.723-73.299-14.38-73.299z"/>
		<polygon fill="#180F0A" points="-2.285,-78.202 3.67,-78.202 3.67,-63.937 6.049,-63.937 6.049,-78.202 11.935,-78.202 
			11.935,-80.646 -2.285,-80.646 		"/>
		<path fill="#180F0A" d="M27.248-81.139c-4.792,0-8.999,3.695-8.999,8.604c0,5.04,3.922,9.007,8.982,9.007
			c4.835,0,9.002-3.816,9.002-8.741C36.233-77.261,32.203-81.139,27.248-81.139z M27.248-65.999c-3.488,0-6.603-2.641-6.603-6.248
			c0-3.761,2.87-6.424,6.586-6.424c3.558,0,6.583,2.6,6.583,6.271C33.814-68.776,30.841-65.999,27.248-65.999z"/>
		<path fill="#180F0A" d="M50.946-70.655h5.312v1.879c0,1.432-1.904,2.287-3.068,2.578c-0.626,0.16-1.274,0.221-1.926,0.221
			c-3.743,0-6.92-2.369-6.92-6.312c0-3.94,3.226-6.313,6.967-6.313c2.265,0,3.762,0.691,5.28,2.352l1.679-1.724
			c-1.995-1.995-4.006-3.048-7.096-3.048c-5.019,0-9.209,3.562-9.209,8.715c0,5.154,4.121,8.779,9.162,8.779
			c1.007,0,2.016-0.109,2.977-0.381c2.171-0.611,4.55-2.197,4.55-4.705v-4.461h-7.701v2.42H50.946z"/>
		<path fill="#180F0A" d="M80.804-75.716c0-3.184-2.221-4.93-5.264-4.93h-9.901v16.711h2.441v-6.918h6.229l3.357,6.916h2.756
			l-3.472-7.012C79.371-71.53,80.804-73.187,80.804-75.716z M75.54-73.299h-7.46v-4.926h7.46c1.59,0,2.843,0.628,2.843,2.371
			C78.383-74.083,77.195-73.299,75.54-73.299z"/>
		<path fill="#180F0A" d="M93.812-80.622l-7.589,16.688h2.642l2.485-5.443h7.503l2.397,5.443h2.734l-7.487-16.688H93.812z
			 M92.474-71.839l2.642-5.824l2.642,5.824H92.474z"/>
		<polygon fill="#180F0A" points="119.144,-70.229 113.388,-80.646 110.995,-80.646 110.995,-63.937 113.365,-63.937 
			113.365,-75.628 119.144,-65.304 125.079,-75.628 125.079,-63.937 127.521,-63.937 127.521,-80.646 125.101,-80.646 		"/>
	</g>
</g>
<g id="GUIDE">
</g>
</svg>
